<svg xmlns="http://www.w3.org/2000/svg" viewBox="0 0 160 160" width="160" height="160" shape-rendering="crispEdges">
<desc>Grass texture — vectorized dither, sampled from grass.png</desc>
<rect x="0" y="0" width="10" height="10" fill="#3b5e33"/>
<rect x="10" y="0" width="10" height="10" fill="#446631"/>
<rect x="20" y="0" width="10" height="10" fill="#436632"/>
<rect x="30" y="0" width="10" height="10" fill="#406231"/>
<rect x="40" y="0" width="10" height="10" fill="#4c6d33"/>
<rect x="50" y="0" width="10" height="10" fill="#395a2f"/>
<rect x="60" y="0" width="10" height="10" fill="#446632"/>
<rect x="70" y="0" width="10" height="10" fill="#335431"/>
<rect x="80" y="0" width="10" height="10" fill="#345831"/>
<rect x="90" y="0" width="10" height="10" fill="#395a30"/>
<rect x="100" y="0" width="10" height="10" fill="#3d6030"/>
<rect x="110" y="0" width="10" height="10" fill="#3e5f30"/>
<rect x="120" y="0" width="10" height="10" fill="#4f7135"/>
<rect x="130" y="0" width="10" height="10" fill="#517535"/>
<rect x="140" y="0" width="10" height="10" fill="#345630"/>
<rect x="150" y="0" width="10" height="10" fill="#436431"/>
<rect x="0" y="10" width="10" height="10" fill="#4a6b34"/>
<rect x="10" y="10" width="10" height="10" fill="#406030"/>
<rect x="20" y="10" width="10" height="10" fill="#335630"/>
<rect x="30" y="10" width="10" height="10" fill="#345730"/>
<rect x="40" y="10" width="10" height="10" fill="#355830"/>
<rect x="50" y="10" width="10" height="10" fill="#517135"/>
<rect x="60" y="10" width="10" height="10" fill="#355632"/>
<rect x="70" y="10" width="10" height="10" fill="#315430"/>
<rect x="80" y="10" width="10" height="10" fill="#335530"/>
<rect x="90" y="10" width="10" height="10" fill="#43652e"/>
<rect x="100" y="10" width="10" height="10" fill="#4f6f34"/>
<rect x="110" y="10" width="10" height="10" fill="#416230"/>
<rect x="120" y="10" width="10" height="10" fill="#3f5f30"/>
<rect x="130" y="10" width="10" height="10" fill="#3d5d2f"/>
<rect x="140" y="10" width="10" height="10" fill="#42672f"/>
<rect x="150" y="10" width="10" height="10" fill="#325330"/>
<rect x="0" y="20" width="10" height="10" fill="#385830"/>
<rect x="10" y="20" width="10" height="10" fill="#305232"/>
<rect x="20" y="20" width="10" height="10" fill="#496834"/>
<rect x="30" y="20" width="10" height="10" fill="#476930"/>
<rect x="40" y="20" width="10" height="10" fill="#567835"/>
<rect x="50" y="20" width="10" height="10" fill="#3a5830"/>
<rect x="60" y="20" width="10" height="10" fill="#44652f"/>
<rect x="70" y="20" width="10" height="10" fill="#426431"/>
<rect x="80" y="20" width="10" height="10" fill="#446630"/>
<rect x="90" y="20" width="10" height="10" fill="#4e7335"/>
<rect x="100" y="20" width="10" height="10" fill="#38592f"/>
<rect x="110" y="20" width="10" height="10" fill="#3c5c2f"/>
<rect x="120" y="20" width="10" height="10" fill="#416130"/>
<rect x="130" y="20" width="10" height="10" fill="#406230"/>
<rect x="140" y="20" width="10" height="10" fill="#3f5e30"/>
<rect x="150" y="20" width="10" height="10" fill="#567533"/>
<rect x="0" y="30" width="10" height="10" fill="#3d5d30"/>
<rect x="10" y="30" width="10" height="10" fill="#345632"/>
<rect x="20" y="30" width="10" height="10" fill="#466731"/>
<rect x="30" y="30" width="10" height="10" fill="#486831"/>
<rect x="40" y="30" width="10" height="10" fill="#4d6e32"/>
<rect x="50" y="30" width="10" height="10" fill="#3f6030"/>
<rect x="60" y="30" width="10" height="10" fill="#426331"/>
<rect x="70" y="30" width="10" height="10" fill="#436430"/>
<rect x="80" y="30" width="10" height="10" fill="#426330"/>
<rect x="90" y="30" width="10" height="10" fill="#496b33"/>
<rect x="100" y="30" width="10" height="10" fill="#3b5c30"/>
<rect x="110" y="30" width="10" height="10" fill="#3c5d31"/>
<rect x="120" y="30" width="10" height="10" fill="#40602f"/>
<rect x="130" y="30" width="10" height="10" fill="#3f612f"/>
<rect x="140" y="30" width="10" height="10" fill="#3d6130"/>
<rect x="150" y="30" width="10" height="10" fill="#4b6d32"/>
<rect x="0" y="40" width="10" height="10" fill="#2e522f"/>
<rect x="10" y="40" width="10" height="10" fill="#486932"/>
<rect x="20" y="40" width="10" height="10" fill="#375930"/>
<rect x="30" y="40" width="10" height="10" fill="#33552e"/>
<rect x="40" y="40" width="10" height="10" fill="#436330"/>
<rect x="50" y="40" width="10" height="10" fill="#32552e"/>
<rect x="60" y="40" width="10" height="10" fill="#3f5f30"/>
<rect x="70" y="40" width="10" height="10" fill="#446330"/>
<rect x="80" y="40" width="10" height="10" fill="#426331"/>
<rect x="90" y="40" width="10" height="10" fill="#40612f"/>
<rect x="100" y="40" width="10" height="10" fill="#325530"/>
<rect x="110" y="40" width="10" height="10" fill="#507135"/>
<rect x="120" y="40" width="10" height="10" fill="#406031"/>
<rect x="130" y="40" width="10" height="10" fill="#3b5b2e"/>
<rect x="140" y="40" width="10" height="10" fill="#4f7034"/>
<rect x="150" y="40" width="10" height="10" fill="#3d5f2f"/>
<rect x="0" y="50" width="10" height="10" fill="#466633"/>
<rect x="10" y="50" width="10" height="10" fill="#315530"/>
<rect x="20" y="50" width="10" height="10" fill="#3f5f2f"/>
<rect x="30" y="50" width="10" height="10" fill="#3f6130"/>
<rect x="40" y="50" width="10" height="10" fill="#3f602f"/>
<rect x="50" y="50" width="10" height="10" fill="#406131"/>
<rect x="60" y="50" width="10" height="10" fill="#3e602f"/>
<rect x="70" y="50" width="10" height="10" fill="#3b5c2f"/>
<rect x="80" y="50" width="10" height="10" fill="#335531"/>
<rect x="90" y="50" width="10" height="10" fill="#335430"/>
<rect x="100" y="50" width="10" height="10" fill="#466731"/>
<rect x="110" y="50" width="10" height="10" fill="#405f30"/>
<rect x="120" y="50" width="10" height="10" fill="#3e5f2e"/>
<rect x="130" y="50" width="10" height="10" fill="#3e612f"/>
<rect x="140" y="50" width="10" height="10" fill="#436331"/>
<rect x="150" y="50" width="10" height="10" fill="#416131"/>
<rect x="0" y="60" width="10" height="10" fill="#3c5d31"/>
<rect x="10" y="60" width="10" height="10" fill="#3f6031"/>
<rect x="20" y="60" width="10" height="10" fill="#335531"/>
<rect x="30" y="60" width="10" height="10" fill="#325530"/>
<rect x="40" y="60" width="10" height="10" fill="#3f6130"/>
<rect x="50" y="60" width="10" height="10" fill="#4e7131"/>
<rect x="60" y="60" width="10" height="10" fill="#3d5d2f"/>
<rect x="70" y="60" width="10" height="10" fill="#3f602f"/>
<rect x="80" y="60" width="10" height="10" fill="#40622f"/>
<rect x="90" y="60" width="10" height="10" fill="#486932"/>
<rect x="100" y="60" width="10" height="10" fill="#335530"/>
<rect x="110" y="60" width="10" height="10" fill="#3d5f2f"/>
<rect x="120" y="60" width="10" height="10" fill="#305331"/>
<rect x="130" y="60" width="10" height="10" fill="#2e4f31"/>
<rect x="140" y="60" width="10" height="10" fill="#416230"/>
<rect x="150" y="60" width="10" height="10" fill="#4d6f33"/>
<rect x="0" y="70" width="10" height="10" fill="#4d6d33"/>
<rect x="10" y="70" width="10" height="10" fill="#385a30"/>
<rect x="20" y="70" width="10" height="10" fill="#476835"/>
<rect x="30" y="70" width="10" height="10" fill="#537335"/>
<rect x="40" y="70" width="10" height="10" fill="#3f602f"/>
<rect x="50" y="70" width="10" height="10" fill="#3a5e2f"/>
<rect x="60" y="70" width="10" height="10" fill="#527534"/>
<rect x="70" y="70" width="10" height="10" fill="#3f602f"/>
<rect x="80" y="70" width="10" height="10" fill="#40602f"/>
<rect x="90" y="70" width="10" height="10" fill="#305332"/>
<rect x="100" y="70" width="10" height="10" fill="#43622f"/>
<rect x="110" y="70" width="10" height="10" fill="#4a6c34"/>
<rect x="120" y="70" width="10" height="10" fill="#406230"/>
<rect x="130" y="70" width="10" height="10" fill="#43652f"/>
<rect x="140" y="70" width="10" height="10" fill="#335630"/>
<rect x="150" y="70" width="10" height="10" fill="#405f2d"/>
<rect x="0" y="80" width="10" height="10" fill="#466732"/>
<rect x="10" y="80" width="10" height="10" fill="#3b5e30"/>
<rect x="20" y="80" width="10" height="10" fill="#456a30"/>
<rect x="30" y="80" width="10" height="10" fill="#4c6d33"/>
<rect x="40" y="80" width="20" height="10" fill="#3f6031"/>
<rect x="60" y="80" width="10" height="10" fill="#4d7035"/>
<rect x="70" y="80" width="10" height="10" fill="#3f6030"/>
<rect x="80" y="80" width="10" height="10" fill="#3e6031"/>
<rect x="90" y="80" width="10" height="10" fill="#315530"/>
<rect x="100" y="80" width="10" height="10" fill="#41612f"/>
<rect x="110" y="80" width="10" height="10" fill="#4d6e34"/>
<rect x="120" y="80" width="10" height="10" fill="#40612f"/>
<rect x="130" y="80" width="10" height="10" fill="#476931"/>
<rect x="140" y="80" width="10" height="10" fill="#325432"/>
<rect x="150" y="80" width="10" height="10" fill="#416130"/>
<rect x="0" y="90" width="10" height="10" fill="#305233"/>
<rect x="10" y="90" width="10" height="10" fill="#3f5d30"/>
<rect x="20" y="90" width="10" height="10" fill="#406131"/>
<rect x="30" y="90" width="10" height="10" fill="#406130"/>
<rect x="40" y="90" width="10" height="10" fill="#446331"/>
<rect x="50" y="90" width="10" height="10" fill="#3e5f30"/>
<rect x="60" y="90" width="10" height="10" fill="#305431"/>
<rect x="70" y="90" width="10" height="10" fill="#436532"/>
<rect x="80" y="90" width="10" height="10" fill="#426330"/>
<rect x="90" y="90" width="10" height="10" fill="#3e5f2f"/>
<rect x="100" y="90" width="10" height="10" fill="#3d5e30"/>
<rect x="110" y="90" width="10" height="10" fill="#40602f"/>
<rect x="120" y="90" width="10" height="10" fill="#416030"/>
<rect x="130" y="90" width="10" height="10" fill="#395c2e"/>
<rect x="140" y="90" width="10" height="10" fill="#4e6f34"/>
<rect x="150" y="90" width="10" height="10" fill="#3f5f30"/>
<rect x="0" y="100" width="10" height="10" fill="#456832"/>
<rect x="10" y="100" width="10" height="10" fill="#31532f"/>
<rect x="20" y="100" width="10" height="10" fill="#426230"/>
<rect x="30" y="100" width="10" height="10" fill="#3d6030"/>
<rect x="40" y="100" width="10" height="10" fill="#315532"/>
<rect x="50" y="100" width="10" height="10" fill="#405f30"/>
<rect x="60" y="100" width="10" height="10" fill="#3f6130"/>
<rect x="70" y="100" width="10" height="10" fill="#315430"/>
<rect x="80" y="100" width="10" height="10" fill="#335632"/>
<rect x="90" y="100" width="10" height="10" fill="#3c5c2f"/>
<rect x="100" y="100" width="10" height="10" fill="#4c6d32"/>
<rect x="110" y="100" width="10" height="10" fill="#335531"/>
<rect x="120" y="100" width="20" height="10" fill="#416230"/>
<rect x="140" y="100" width="10" height="10" fill="#325531"/>
<rect x="150" y="100" width="10" height="10" fill="#3e602f"/>
<rect x="0" y="110" width="10" height="10" fill="#416131"/>
<rect x="10" y="110" width="10" height="10" fill="#496b32"/>
<rect x="20" y="110" width="10" height="10" fill="#3c5c2f"/>
<rect x="30" y="110" width="10" height="10" fill="#3d5f2f"/>
<rect x="40" y="110" width="10" height="10" fill="#406131"/>
<rect x="50" y="110" width="10" height="10" fill="#2f5230"/>
<rect x="60" y="110" width="10" height="10" fill="#3b5c31"/>
<rect x="70" y="110" width="10" height="10" fill="#40612f"/>
<rect x="80" y="110" width="10" height="10" fill="#3e5d2f"/>
<rect x="90" y="110" width="10" height="10" fill="#486a31"/>
<rect x="100" y="110" width="10" height="10" fill="#335530"/>
<rect x="110" y="110" width="10" height="10" fill="#3f5f2e"/>
<rect x="120" y="110" width="10" height="10" fill="#3d5e30"/>
<rect x="130" y="110" width="10" height="10" fill="#3e5e2f"/>
<rect x="140" y="110" width="10" height="10" fill="#3d5e2f"/>
<rect x="150" y="110" width="10" height="10" fill="#426331"/>
<rect x="0" y="120" width="10" height="10" fill="#3f5f31"/>
<rect x="10" y="120" width="10" height="10" fill="#3b5a2f"/>
<rect x="20" y="120" width="10" height="10" fill="#34552e"/>
<rect x="30" y="120" width="10" height="10" fill="#315330"/>
<rect x="40" y="120" width="10" height="10" fill="#537432"/>
<rect x="50" y="120" width="10" height="10" fill="#42612e"/>
<rect x="60" y="120" width="10" height="10" fill="#507333"/>
<rect x="70" y="120" width="10" height="10" fill="#3e5e2f"/>
<rect x="80" y="120" width="10" height="10" fill="#3f622f"/>
<rect x="90" y="120" width="10" height="10" fill="#3f6130"/>
<rect x="100" y="120" width="10" height="10" fill="#45622f"/>
<rect x="110" y="120" width="10" height="10" fill="#3c5c2e"/>
<rect x="120" y="120" width="10" height="10" fill="#2f5332"/>
<rect x="130" y="120" width="10" height="10" fill="#274b2f"/>
<rect x="140" y="120" width="10" height="10" fill="#527235"/>
<rect x="150" y="120" width="10" height="10" fill="#2d5231"/>
<rect x="0" y="130" width="10" height="10" fill="#426232"/>
<rect x="10" y="130" width="10" height="10" fill="#3f6030"/>
<rect x="20" y="130" width="10" height="10" fill="#375930"/>
<rect x="30" y="130" width="10" height="10" fill="#38592f"/>
<rect x="40" y="130" width="10" height="10" fill="#507135"/>
<rect x="50" y="130" width="10" height="10" fill="#3d5e2f"/>
<rect x="60" y="130" width="10" height="10" fill="#4f7234"/>
<rect x="70" y="130" width="10" height="10" fill="#3f5e30"/>
<rect x="80" y="130" width="10" height="10" fill="#41602f"/>
<rect x="90" y="130" width="10" height="10" fill="#3f6131"/>
<rect x="100" y="130" width="10" height="10" fill="#3f6030"/>
<rect x="110" y="130" width="10" height="10" fill="#3e5e2f"/>
<rect x="120" y="130" width="10" height="10" fill="#315330"/>
<rect x="130" y="130" width="10" height="10" fill="#22482f"/>
<rect x="140" y="130" width="10" height="10" fill="#496931"/>
<rect x="150" y="130" width="10" height="10" fill="#31522f"/>
<rect x="0" y="140" width="10" height="10" fill="#305231"/>
<rect x="10" y="140" width="10" height="10" fill="#3f6030"/>
<rect x="20" y="140" width="10" height="10" fill="#496a33"/>
<rect x="30" y="140" width="10" height="10" fill="#4c6d32"/>
<rect x="40" y="140" width="10" height="10" fill="#3f6030"/>
<rect x="50" y="140" width="10" height="10" fill="#405f2f"/>
<rect x="60" y="140" width="10" height="10" fill="#3f6030"/>
<rect x="70" y="140" width="10" height="10" fill="#325430"/>
<rect x="80" y="140" width="10" height="10" fill="#335532"/>
<rect x="90" y="140" width="10" height="10" fill="#3e5f30"/>
<rect x="100" y="140" width="10" height="10" fill="#486a31"/>
<rect x="110" y="140" width="10" height="10" fill="#2f5331"/>
<rect x="120" y="140" width="10" height="10" fill="#476832"/>
<rect x="130" y="140" width="10" height="10" fill="#4d6c34"/>
<rect x="140" y="140" width="10" height="10" fill="#315232"/>
<rect x="150" y="140" width="10" height="10" fill="#425f31"/>
<rect x="0" y="150" width="10" height="10" fill="#436332"/>
<rect x="10" y="150" width="10" height="10" fill="#416030"/>
<rect x="20" y="150" width="10" height="10" fill="#345531"/>
<rect x="30" y="150" width="10" height="10" fill="#335330"/>
<rect x="40" y="150" width="10" height="10" fill="#3e6030"/>
<rect x="50" y="150" width="10" height="10" fill="#385a32"/>
<rect x="60" y="150" width="10" height="10" fill="#3f6030"/>
<rect x="70" y="150" width="10" height="10" fill="#426330"/>
<rect x="80" y="150" width="10" height="10" fill="#426230"/>
<rect x="90" y="150" width="10" height="10" fill="#335433"/>
<rect x="100" y="150" width="10" height="10" fill="#3d5c2f"/>
<rect x="110" y="150" width="10" height="10" fill="#416232"/>
<rect x="120" y="150" width="10" height="10" fill="#3f5f2f"/>
<rect x="130" y="150" width="10" height="10" fill="#40612f"/>
<rect x="140" y="150" width="10" height="10" fill="#416131"/>
<rect x="150" y="150" width="10" height="10" fill="#406132"/>
</svg>
