<svg xmlns="http://www.w3.org/2000/svg" viewBox="0 0 280 170" width="280" height="170" shape-rendering="crispEdges">
<title>Marion Greenfield, City Advisor — bust portrait</title>
<desc>Head-and-shoulders crop of Advisor Greenfield for the tutorial dialogue panel.</desc>
<rect x="110" y="0" width="40" height="10" fill="#14141f"/>
<rect x="100" y="10" width="10" height="10" fill="#14141f"/>
<rect x="110" y="10" width="40" height="10" fill="#9fb2d1"/>
<rect x="150" y="10" width="10" height="10" fill="#14141f"/>
<rect x="100" y="20" width="10" height="10" fill="#14141f"/>
<rect x="110" y="20" width="30" height="10" fill="#9fb2d1"/>
<rect x="140" y="20" width="10" height="10" fill="#7bffb7"/>
<rect x="150" y="20" width="10" height="10" fill="#14141f"/>
<rect x="80" y="30" width="110" height="10" fill="#14141f"/>
<rect x="80" y="40" width="10" height="10" fill="#14141f"/>
<rect x="90" y="40" width="90" height="10" fill="#9fb2d1"/>
<rect x="180" y="40" width="10" height="10" fill="#14141f"/>
<rect x="80" y="50" width="10" height="10" fill="#14141f"/>
<rect x="90" y="50" width="20" height="10" fill="#9fb2d1"/>
<rect x="110" y="50" width="50" height="10" fill="#f2c993"/>
<rect x="160" y="50" width="20" height="10" fill="#9fb2d1"/>
<rect x="180" y="50" width="10" height="10" fill="#14141f"/>
<rect x="80" y="60" width="10" height="10" fill="#14141f"/>
<rect x="90" y="60" width="10" height="10" fill="#9fb2d1"/>
<rect x="100" y="60" width="70" height="10" fill="#f2c993"/>
<rect x="170" y="60" width="10" height="10" fill="#9fb2d1"/>
<rect x="180" y="60" width="10" height="10" fill="#14141f"/>
<rect x="80" y="70" width="10" height="10" fill="#14141f"/>
<rect x="90" y="70" width="10" height="10" fill="#9fb2d1"/>
<rect x="100" y="70" width="30" height="10" fill="#ffcc70"/>
<rect x="130" y="70" width="10" height="10" fill="#f2c993"/>
<rect x="140" y="70" width="30" height="10" fill="#ffcc70"/>
<rect x="170" y="70" width="10" height="10" fill="#9fb2d1"/>
<rect x="180" y="70" width="10" height="10" fill="#14141f"/>
<rect x="80" y="80" width="10" height="10" fill="#14141f"/>
<rect x="90" y="80" width="10" height="10" fill="#9fb2d1"/>
<rect x="100" y="80" width="10" height="10" fill="#ffcc70"/>
<rect x="110" y="80" width="10" height="10" fill="#14141f"/>
<rect x="120" y="80" width="30" height="10" fill="#ffcc70"/>
<rect x="150" y="80" width="10" height="10" fill="#14141f"/>
<rect x="160" y="80" width="10" height="10" fill="#ffcc70"/>
<rect x="170" y="80" width="10" height="10" fill="#9fb2d1"/>
<rect x="180" y="80" width="10" height="10" fill="#14141f"/>
<rect x="80" y="90" width="10" height="10" fill="#14141f"/>
<rect x="90" y="90" width="10" height="10" fill="#9fb2d1"/>
<rect x="100" y="90" width="10" height="10" fill="#d6a468"/>
<rect x="110" y="90" width="50" height="10" fill="#f2c993"/>
<rect x="160" y="90" width="10" height="10" fill="#d6a468"/>
<rect x="170" y="90" width="10" height="10" fill="#9fb2d1"/>
<rect x="180" y="90" width="10" height="10" fill="#14141f"/>
<rect x="80" y="100" width="10" height="10" fill="#14141f"/>
<rect x="90" y="100" width="20" height="10" fill="#f2c993"/>
<rect x="110" y="100" width="10" height="10" fill="#d6a468"/>
<rect x="120" y="100" width="30" height="10" fill="#e8f1ff"/>
<rect x="150" y="100" width="10" height="10" fill="#d6a468"/>
<rect x="160" y="100" width="20" height="10" fill="#f2c993"/>
<rect x="180" y="100" width="10" height="10" fill="#14141f"/>
<rect x="90" y="110" width="10" height="10" fill="#14141f"/>
<rect x="100" y="110" width="70" height="10" fill="#f2c993"/>
<rect x="170" y="110" width="10" height="10" fill="#14141f"/>
<rect x="110" y="120" width="10" height="10" fill="#14141f"/>
<rect x="120" y="120" width="30" height="10" fill="#f2c993"/>
<rect x="150" y="120" width="10" height="10" fill="#14141f"/>
<rect x="60" y="130" width="60" height="10" fill="#14141f"/>
<rect x="120" y="130" width="30" height="10" fill="#e8f1ff"/>
<rect x="150" y="130" width="60" height="10" fill="#14141f"/>
<rect x="60" y="140" width="10" height="10" fill="#162236"/>
<rect x="70" y="140" width="40" height="10" fill="#223557"/>
<rect x="110" y="140" width="10" height="10" fill="#7bffb7"/>
<rect x="120" y="140" width="30" height="10" fill="#e8f1ff"/>
<rect x="150" y="140" width="10" height="10" fill="#7bffb7"/>
<rect x="160" y="140" width="40" height="10" fill="#223557"/>
<rect x="200" y="140" width="10" height="10" fill="#162236"/>
<rect x="210" y="140" width="10" height="10" fill="#14141f"/>
<rect x="60" y="150" width="10" height="10" fill="#162236"/>
<rect x="70" y="150" width="40" height="10" fill="#223557"/>
<rect x="110" y="150" width="10" height="10" fill="#e8f1ff"/>
<rect x="120" y="150" width="10" height="10" fill="#7bffb7"/>
<rect x="130" y="150" width="10" height="10" fill="#e8f1ff"/>
<rect x="140" y="150" width="10" height="10" fill="#7bffb7"/>
<rect x="150" y="150" width="10" height="10" fill="#e8f1ff"/>
<rect x="160" y="150" width="40" height="10" fill="#223557"/>
<rect x="200" y="150" width="10" height="10" fill="#162236"/>
<rect x="210" y="150" width="10" height="10" fill="#14141f"/>
<rect x="60" y="160" width="10" height="10" fill="#162236"/>
<rect x="70" y="160" width="40" height="10" fill="#223557"/>
<rect x="110" y="160" width="20" height="10" fill="#e8f1ff"/>
<rect x="130" y="160" width="10" height="10" fill="#7bffb7"/>
<rect x="140" y="160" width="20" height="10" fill="#e8f1ff"/>
<rect x="160" y="160" width="40" height="10" fill="#223557"/>
<rect x="200" y="160" width="10" height="10" fill="#162236"/>
<rect x="210" y="160" width="10" height="10" fill="#14141f"/>
</svg>
